<?xml version="1.0" encoding="iso-8859-1"?>
<!-- Uploaded to: SVG Repo, www.svgrepo.com, Generator: SVG Repo Mixer Tools -->
<svg fill="#000000" height="800px" width="800px" version="1.1" id="Capa_1" xmlns="http://www.w3.org/2000/svg" xmlns:xlink="http://www.w3.org/1999/xlink" 
	 viewBox="0 0 512 512" xml:space="preserve">
<g>
	<g>
		<path d="M494.355,198.665h-20.341v-75.512c0-25.959-21.12-47.078-47.078-47.078h-1.734l-12.584-64.798
			c-0.383-1.973-1.537-3.714-3.205-4.835c-1.67-1.123-3.716-1.532-5.688-1.142L46.227,76.096C20.66,76.554,0,97.479,0,123.153
			v336.613c0,25.959,21.12,47.078,47.079,47.078h379.857c25.959,0,47.078-21.118,47.078-47.078V345.012h20.341
			c9.729,0,17.645-7.916,17.645-17.645V216.31C512,206.58,504.084,198.665,494.355,198.665z M496.876,327.368
			c0,1.366-1.154,2.521-2.521,2.521h-194.68c-1.366,0-2.521-1.154-2.521-2.521V216.31c0-1.366,1.154-2.521,2.521-2.521
			c4.176,0,7.562-3.385,7.562-7.562s-3.386-7.562-7.562-7.562c-9.729,0-17.645,7.916-17.645,17.645v111.058
			c0,9.729,7.916,17.645,17.645,17.645H458.89v114.754c0,17.62-14.335,31.953-31.953,31.953H47.079
			c-17.62-0.001-31.954-14.336-31.954-31.955V123.153c0-17.613,14.324-31.942,31.935-31.954c0.004,0,0.007,0,0.011,0
			c0.007,0,0.013-0.001,0.02-0.001h182.501c4.176,0,7.562-3.385,7.562-7.562s-3.386-7.562-7.562-7.562H124.194L399.218,21.61
			l10.577,54.464h-95.993c-4.176,0-7.562,3.385-7.562,7.562s3.386,7.562,7.562,7.562h105.065c0.013,0,0.027,0,0.04,0h8.027
			c17.62,0,31.953,14.335,31.953,31.953v75.512H355.975c-4.176,0-7.562,3.385-7.562,7.562s3.386,7.562,7.562,7.562h138.38
			c1.366,0,2.521,1.155,2.521,2.521V327.368z"/>
	</g>
</g>
<g>
	<g>
		<path d="M359.401,234.924c-20.355,0-36.914,16.56-36.914,36.914s16.56,36.914,36.914,36.914s36.914-16.56,36.914-36.914
			S379.756,234.924,359.401,234.924z M359.401,293.628c-12.016,0-21.79-9.774-21.79-21.79c0-12.016,9.775-21.79,21.79-21.79
			s21.79,9.774,21.79,21.79C381.191,283.854,371.416,293.628,359.401,293.628z"/>
	</g>
</g>
<g>
	<g>
		<path d="M119.485,116.642H71.687c-17.739,0-32.17,14.432-32.17,32.17v48.996c0,4.177,3.386,7.562,7.562,7.562
			c4.176,0,7.562-3.385,7.562-7.562v-48.996c0-9.399,7.647-17.046,17.046-17.046h47.799c4.176,0,7.562-3.385,7.562-7.562
			C127.048,120.027,123.662,116.642,119.485,116.642z"/>
	</g>
</g>
</svg>